<?xml version="1.0" standalone="no"?>
<!DOCTYPE svg PUBLIC "-//W3C//DTD SVG 20010904//EN"
 "http://www.w3.org/TR/2001/REC-SVG-20010904/DTD/svg10.dtd">
<svg version="1.0" xmlns="http://www.w3.org/2000/svg"
 viewBox="0 0 957.000000 182.000000"
 preserveAspectRatio="xMidYMid meet">

<g transform="translate(0.000000,182.000000) scale(0.100000,-0.100000)"
fill="white" stroke="none">
<path d="M40 1761 c0 -4 31 -11 69 -15 47 -5 81 -14 103 -29 66 -45 63 -7 63
-812 0 -680 -1 -732 -18 -762 -25 -47 -57 -64 -142 -76 -41 -6 -75 -15 -75
-19 0 -4 301 -8 668 -8 l669 0 6 167 c10 239 9 363 -3 363 -5 0 -10 -6 -10
-14 0 -60 -25 -229 -41 -282 -16 -52 -31 -77 -72 -119 -79 -81 -106 -87 -429
-92 l-268 -5 0 788 c0 731 1 791 18 823 22 44 68 68 148 76 150 17 42 25 -311
25 -206 0 -375 -4 -375 -9z"/>
<path d="M2670 1761 c0 -5 29 -12 63 -15 71 -8 117 -31 144 -73 17 -25 18 -71
18 -768 0 -697 -1 -743 -18 -768 -27 -42 -72 -64 -143 -72 -35 -4 -64 -11 -64
-16 0 -5 266 -9 664 -9 l664 0 6 128 c3 70 8 166 11 215 4 68 2 87 -9 87 -9 0
-15 -24 -19 -84 -10 -120 -32 -182 -87 -236 -73 -73 -112 -81 -442 -87 l-278
-5 0 436 0 436 300 0 c260 0 300 2 300 15 0 13 -40 15 -300 15 l-300 0 0 396
0 396 243 -5 c273 -5 322 -14 386 -73 53 -47 81 -118 94 -236 6 -54 15 -98 19
-98 10 0 10 196 1 333 l-6 97 -624 0 c-354 0 -623 -4 -623 -9z"/>
<path d="M5290 1762 c0 -5 29 -13 63 -16 71 -8 117 -31 144 -73 17 -25 18 -71
18 -768 0 -697 -1 -743 -18 -768 -27 -42 -72 -64 -143 -72 -35 -4 -64 -11 -64
-17 0 -6 161 -8 463 -6 523 5 541 7 702 88 283 142 426 468 394 895 -29 380
-213 622 -546 717 -74 21 -99 22 -545 26 -293 2 -468 0 -468 -6z m874 -37
c210 -56 320 -216 368 -530 18 -122 15 -479 -6 -600 -52 -305 -152 -445 -366
-509 -35 -11 -109 -19 -207 -23 l-153 -6 0 848 0 848 153 -6 c90 -3 176 -12
211 -22z"/>
<path d="M8170 1761 c0 -5 29 -12 63 -15 71 -8 117 -31 144 -73 17 -25 18 -71
18 -768 0 -697 -1 -743 -18 -768 -27 -42 -72 -64 -143 -72 -35 -4 -64 -11 -64
-16 0 -5 266 -9 664 -9 l664 0 6 143 c11 269 11 377 1 377 -5 0 -15 -49 -21
-109 -22 -201 -66 -294 -164 -343 -74 -38 -159 -47 -422 -48 l-218 0 0 783 c0
739 1 784 19 823 22 49 61 70 149 80 143 16 40 24 -308 24 -207 0 -370 -4
-370 -9z"/>
</g>
</svg>
